<svg xmlns="http://www.w3.org/2000/svg" xml:space="preserve" width="256" height="256"><path d="M255 128a127 127 0 0 1-127 127A127 127 0 0 1 1 128 127 127 0 0 1 128 1a127 127 0 0 1 127 127" style="fill:#6c7ae9;fill-rule:evenodd;stroke-width:2.20571"/><path d="M137.096 46.732c-2.338-.033-4.22.896-5.766 2.836-1.091 1.37-2.353 3.606-3.076 5.453-.698 1.782-.762 1.736-1.412-1.037-.89-3.794-1.699-4.495-3.043-2.636-.689.952-.933 2.888-.535 4.222.123.414.191.786.156.846l-.002.002-.002.002-.002.002h-.002c-.084.014-.816-.353-1.658-.838-.87-.5-1.697-.912-1.838-.912a.39.39 0 0 1-.342-.234c-.141-.392-.507-.03-.8.795-.248.692-.23.882.161 1.7.243.507.89 1.365 1.438 1.907l.996.986-1.035.205c-.57.113-1.959.36-3.086.55-1.128.188-2.106.421-2.174.517-.068.095-1.865.35-3.992.566-9.692.985-16.324 2.092-22.104 3.692a147 147 0 0 1-6.365 1.576c-7.985 1.751-24.141 5.94-31.398 8.14-8.157 2.474-13.263 4.435-18.237 7.002-1.983 1.024-2.725 1.555-4.515 3.233-1.69 1.584-2.288 2.304-2.838 3.406-1.824 3.657-3.488 9.313-3.758 12.777-.094 1.208-.23 2.332-.3 2.496-.072.165.013.525.187.8.845 1.335 1.015 1.852.758 2.296-.209.36-.114.843.548 2.813 1.193 3.545 2.218 5.18 4.871 7.765 1.873 1.824 3.58 2.707 5.502 2.85.777.058 1.492.014 1.647-.1.15-.11 1.05-.214 2-.23 2.091-.035 4.748-.28 10.033-.926 4.742-.58 13.742-1.407 17.373-1.596l2.588-.134-.754.529c-.415.29-1.568.905-2.56 1.365-1.83.848-2.909 1.731-2.707 2.217.17.41 1.087.72 2.132.72 1.084 0 3.16-.915 5.012-2.208.959-.67 1.145-.74 1.145-.424 0 1.108-.975 2.632-3.172 4.965l-1.35 1.433.746.229c.835.255 2.743-.013 3.85-.54.316-.15.601-.247.662-.23h.002l.002.002h.002l.002.002c.096.107-1.75 4.676-2.486 6.155-.782 1.57-.748 2.31.117 2.511.39.09 1.207-.196 3.119-1.097l2.59-1.223-1.64 3.148c-3.172 6.083-3.745 7.56-3.735 9.63.01 2.155.92 4.578 1.867 4.978.766.323 1.174.277 2.553-.287.682-.28 1.315-.482 1.408-.45.092.033-.93 1.623-2.274 3.534-2.695 3.835-2.788 4.153-1.324 4.498.59.138.786.287.783.597-.006.744-.575 2.684-.937 3.196-.47.664-.447 1.173.074 1.61q.821.686 4.135-.382c.834-.268 1.56-.453 1.65-.422l.002.002h.002l.002.002.002.002.002.002v.002c.025.069-.183.379-.482.707-1.401 1.541-3.254 6.126-3.908 9.672-.598 3.236-.21 6.895 1.006 9.51.538 1.158 1.084 1.57 2.078 1.57.57 0 .964-.213 1.894-1.027.58-.508 1.066-.853 1.158-.832h.002l.002.002h.002l.002.002h.002v.002l.002.002.002.002v.004l.002.008c0 .276-.823 3.47-.908 3.523a23 23 0 0 1-1.11.399c-1.522.522-3.958 2.097-5.386 3.482-1.905 1.849-2.32 3.12-1.355 4.156.488.526.642.565 2.502.631l1.982.07-.654.368c-1.802 1.014-4.09 4.858-4.813 8.086-.366 1.635-.42 2.376-.303 4.183.181 2.804.253 3.045 1.012 3.409.873.417 1.606.06 2.492-1.215.381-.548 1.255-1.753 1.944-2.678l1.252-1.682.18 3.18c.098 1.749.296 3.403.439 3.678.24.46.367.497 1.603.465l1.342-.036-.703.913c-.387.501-1.333 1.415-2.103 2.03a68 68 0 0 0-2.86 2.454c-.8.733-1.655 1.393-1.9 1.465-.675.198-.383.576.566.732 2.333.383 4.31-.068 6.262-1.431l1.16-.811-.123.953c-.649 5.057-2.417 11.205-4.18 14.53-1.103 2.08-2.783 4.285-4.556 5.988a8.2 8.2 0 0 0-1.48 1.912 127 127 0 0 0 2.236 1.168c.31-.11.578-.222.75-.324.53-.316.576-.277.13.77A127 127 0 0 0 128 255a127 127 0 0 0 101.82-51.096 57 57 0 0 1-2.33-1.353l-2.943-1.832 2.187-.125c1.204-.069 2.215-.137 2.245-.15.265-.121-.086-.675-.706-1.112-1.285-.907-2.99-1.507-6.636-2.34-1.927-.44-3.58-.87-3.676-.955l-.002-.002-.002-.002-.002-.002-.002-.002v-.014c.04-.116.824-.45 1.842-.777 1.104-.356 2.129-.741 2.277-.854.423-.32.32-.746-.324-1.347-.327-.305-.982-.94-1.457-1.41-1.464-1.452-5.163-2.777-7.787-2.786-.793-.003-.977-.104-1.795-1.002-.502-.55-1.208-1.143-1.57-1.316s-1.142-.636-1.731-1.027l-1.07-.711.775-.246c1.054-.336 1.418-.652 1.418-1.229 0-1.294-1.239-1.868-2.992-1.387-1.535.422-4.461.637-4.658.342-.247-.37.4-1.1 2.254-2.535 1.764-1.367 2.068-1.889 1.31-2.264-.759-.376-3.498-.214-4.797.283-.473.182-.558-.256-.357-1.832.178-1.397.64-2.36 1.392-2.908.778-.566.665-1.45-.244-1.89-.897-.436-5.311-1.288-6.025-1.164-.503.087-.794.034-.986-.18-.15-.167-.575-.313-.946-.322a6.6 6.6 0 0 1-1.19-.153c-.485-.126-.436-.199.907-1.361 1.943-1.682 3.215-2.459 4.023-2.459.81 0 1.737-.523 1.727-.973-.008-.376-2.719-1.895-4.408-2.47l-1.113-.38 1.32-1.245c.774-.731 1.636-1.82 2.084-2.631.775-1.407 2.484-3.792 3.34-4.658.672-.681 1.019-1.346.879-1.684-.076-.182-1.002-.482-2.457-.795-3.954-.85-5.789-1.037-10.16-1.037-3.613 0-4.139-.039-4.018-.299 1.258-2.723 2.457-6.768 2.457-8.295 0-.606-.08-.69-.81-.879-.64-.165-.857-.151-1.034.069-.13.163-.843.335-1.724.416-3.356.306-8.117 1.371-11.079 2.478-1.058.396-1.145.403-.998.078.952-2.104 1.22-3.154.99-3.865-.167-.517-.426-.808-.867-.977-.992-.38-2.088.216-6.01 3.266l-3.51 2.733-.415-.897c-.895-1.932-1.852-5.37-1.6-5.748.294-.44 2.414-1.354 3.147-1.355.953-.002 3.477-.816 4.068-1.311.51-.427.545-1.055.068-1.225-.192-.068-.813.032-1.382.221-1.575.524-2.338.375-3.077-.6-.499-.659-2.142-4.526-2.04-4.789l.003-.006.002-.002.002-.002c.026-.023.58.088 1.233.247 2.036.494 3.764-.155 4.652-1.745.53-.948.32-1.136-1.205-1.074-1.766.072-3.375-.337-4.156-1.06l-.627-.58.992-2.293c.545-1.261.99-2.437.99-2.612 0-.402.356-.618.547-.332.16.24-.279 2.69-.578 3.227-.3.537 1.882-.583 2.537-1.303 2.357-2.591 3.252-7.983 2.143-12.914l-.293-1.299 1.004 1.1c.552.604 1.306 1.37 1.676 1.705s.785.807.925 1.049.401.44.578.44c.269 0 .304-.28.217-1.677-.198-3.202-1.307-5.163-4.77-8.43l-2.38-2.245 1.086-.137c2.277-.286 4.064-1.168 5.103-2.518l.461-.6-.945-.9c-.52-.495-2.214-1.918-3.766-3.16-2.749-2.2-4.63-3.957-5.09-4.752-.206-.357-.172-.383.39-.277.338.064 1.38.229 2.314.365 1.367.2 1.814.357 2.302.809.765.707 1.287.733 1.287.062 0-.274.108-.498.24-.498.145 0 .096-.207-.124-.517-.201-.284-.512-.974-.692-1.534-.826-2.574-4.2-7.88-7.23-11.373-.257-.295-.412-.589-.352-.658l.002-.002.004-.002c.265-.12 5.58 2.977 7.246 4.225.97.727 1.326.406.721-.65a36 36 0 0 1-.922-1.755c-.662-1.357-3.074-3.643-5.277-5-1.891-1.164-3.843-2.096-4.395-2.1-.188 0-.23-.067-.107-.17.404-.332 4.565-.893 6.97-.939 2.745-.052 3.221-.243 2.965-1.185-.097-.36-.394-.626-.927-.832-.432-.167-.98-.532-1.22-.813-.59-.695-2.727-1.948-4.206-2.465-1.75-.61-4.517-.983-7.315-.984h-2.427l.73-.95c.402-.52 1.043-1.531 1.426-2.245 1.365-2.546 2.88-4.817 3.539-5.301.657-.482.66-.494.184-.613-.305-.077-.485-.276-.485-.535 0-.39-.036-.382-.605.123-.333.295-.804.537-1.047.537s-1.938.438-3.766.972c-1.827.535-4.003 1.033-4.834 1.108-.83.074-1.738.187-2.017.252q-.166.04-.205.008l-.002-.002-.002-.002-.002-.002v-.002l-.002-.002-.002-.006c-.013-.08.223-.31.755-.76.576-.486 1.322-.994 1.66-1.129.339-.135.664-.412.721-.615.058-.204.339-.47.625-.59.702-.296.658-.616-.125-.889-.339-.118-.62-.27-.646-.345l-.002-.01v-.004c.022-.076.38-.26.81-.412l.809-.287-1.684-.034c-2.659-.052-5.598.52-8.404 1.635q-.67.266-.756.238l-.006-.002-.002-.002-.002-.002v-.002h-.002v-.006l.002-.007q.049-.112 1.01-.684c1.084-.643 2.723-2.253 2.723-2.674 0-.141-.59-.31-1.46-.418a9 9 0 0 0-1.029-.072z" style="fill:#000;fill-rule:evenodd;stroke-width:2.20571"/></svg>